<?xml version="1.0" encoding="UTF-8"?><svg id="Layer_2" xmlns="http://www.w3.org/2000/svg" xmlns:xlink="http://www.w3.org/1999/xlink" viewBox="0 0 164 164"><defs><style>.cls-1{fill:#2f3542;}.cls-2{fill:#f7f7f7;filter:url(#drop-shadow-1);}</style><filter id="drop-shadow-1" filterUnits="userSpaceOnUse"><feOffset dx="7" dy="7"/><feGaussianBlur result="blur" stdDeviation="5"/><feFlood flood-color="#000" flood-opacity=".75"/><feComposite in2="blur" operator="in"/><feComposite in="SourceGraphic"/></filter></defs><g id="Layer_2-2"><circle class="cls-1" cx="82" cy="82" r="82"/><path class="cls-2" d="M30.21,75.46c2.71-2.77,5.4-3.62,8.45-3.62,10.25,.02,20.49-.04,30.74,.06,1.92,.02,2.54-.41,2.52-2.44-.11-10.41-.12-20.82-.03-31.24,.06-7.63,7.22-12.46,14.07-9.51,3.94,1.7,6.08,4.86,6.11,9.21,.06,10.41,.1,20.83-.02,31.24-.02,2.2,.52,2.77,2.75,2.74,10.24-.13,20.49-.08,30.74-.02,4.85,.03,8.44,2.48,9.97,6.57,1.46,3.92,.35,8.38-2.81,11.16-2.18,1.93-4.79,2.53-7.64,2.52-10.08-.03-20.16,.04-30.24-.08-2.16-.03-2.87,.46-2.8,2.73,.29,9.32-.18,18.64,.29,27.96,.08,1.56-.12,3.15-.32,4.71-.65,5.02-4.93,8.7-10.01,8.67-5.18-.03-9.62-3.82-9.88-9.03-.31-6.15,.02-12.33-.22-18.48-.18-4.72,.11-9.43,.13-14.15,0-2.05-.68-2.42-2.52-2.4-10.33,.07-20.66,.07-30.99,0-5.27-.03-8.65-2.54-10.16-7.26-1.21-3.79-.15-7.03,1.87-9.36Z"/></g></svg>