<?xml version="1.0" encoding="UTF-8"?><svg id="Layer_2" xmlns="http://www.w3.org/2000/svg" viewBox="0 0 164 164"><defs><style>.cls-1{fill:#a4b0be;}.cls-2{fill:#c9d1db;}.cls-3{fill:#2f3542;}</style></defs><g id="Layer_2-2"><circle class="cls-2" cx="82" cy="82" r="82"/><g><path class="cls-3" d="M140.38,51.57c-6.59-12.29-17.66-20-28.88-20.11-.09,0-.18,0-.27,0-7.85,0-18.95,3.53-29.23,19.36-10.28-15.83-21.38-19.36-29.23-19.36-.09,0-.18,0-.27,0-11.22,.11-22.29,7.82-28.88,20.11-6.59,12.29-9.6,31.62,1.71,49.05,10.36,15.96,28.47,30.12,55.37,43.28l1.29,.63,1.29-.63c26.9-13.16,45.01-27.32,55.37-43.28,11.31-17.43,8.3-36.77,1.71-49.05Zm-33.61,41.95c0,1.49-1.2,2.69-2.69,2.69h-14.01v14.01c0,1.49-1.2,2.69-2.69,2.69h-10.76c-1.49,0-2.69-1.2-2.69-2.69v-14.01h-14.01c-1.49,0-2.69-1.2-2.69-2.69v-10.76c0-1.49,1.2-2.69,2.69-2.69h14.01v-14.01c0-1.49,1.2-2.69,2.69-2.69h10.76c1.49,0,2.69,1.2,2.69,2.69v11.76l.03,2.25h13.98c1.49,0,2.69,1.2,2.69,2.69v10.76Z"/><path class="cls-1" d="M79.91,142.62c-7.93-5.03-14.39-12.04-20.45-19.22-6.65-7.87-12.97-16.11-17.59-25.32-.71-1.41-1.38-2.86-2.01-4.33-3.56-8.32-5.72-17.51-4.73-26.49,1.52-13.86,10.36-26.97,21.47-35.12,.15-.11,.31-.22,.47-.33-1.51-.25-2.94-.35-4.28-.35-.09,0-.18,0-.27,0-11.22,.11-22.29,7.82-28.88,20.11-6.59,12.29-9.6,31.62,1.71,49.05,10.36,15.96,28.47,30.12,55.37,43.28l1.29,.63,.64-.31c-.93-.5-1.84-1.04-2.73-1.6Z"/></g></g></svg>