<?xml version="1.0" encoding="UTF-8"?><svg id="Layer_2" xmlns="http://www.w3.org/2000/svg" xmlns:xlink="http://www.w3.org/1999/xlink" viewBox="0 0 152 152"><defs><style>.cls-1{fill:none;}.cls-2{clip-path:url(#clippath);}.cls-3{fill:#fff;}.cls-4{fill:#c9d1db;}.cls-5{fill:#2f3542;}</style><clipPath id="clippath"><circle class="cls-1" cx="76" cy="76" r="76"/></clipPath></defs><g id="Layer_2-2"><g class="cls-2"><g><rect class="cls-4" x="-10.31" y="-11.46" width="163.31" height="163.31" rx="21.78" ry="21.78"/><path class="cls-5" d="M153,130.07V64.39c-.64-.66-46.47-46.42-47.13-47.13-1.7-1.81-3.85-2.97-6.43-3.48v1.4l-1.52-1.7h-.77s-4.23-1.44-5.3-1.36c-1.07,.09-1.21,2.61-1.21,3.54,0,.86,.13,3.02,.97,3.46,.09,.16,14.75,14.8,14.81,14.84-.01,.82-.04,1.66-.09,2.53-.06,1-.16,1.97-.29,2.93-.02-.02-.05-.02-.08-.03-.11-.19-26.52-26.64-26.76-26.76-.17-.29-.38-.49-.67-.52-1.07-.08-5.3,1.36-5.3,1.36h-.77v2.05c-.15,.03-1.52-1.28-1.52-1.75-2.58,.5-4.74,1.67-6.43,3.47-3.57,3.8-5.02,10.17-4.45,19.48,.26,4.22,1.06,8.09,2.25,11.57,.18-.06,1.56,1.24,1.57,1.27l-2.04,.73c1.88,4.79,4.53,8.79,7.57,11.89,0,0,12.46,12.46,12.57,12.57v1.68l2.55,2.12v.05h-2.36c-.32,5.31-.86,10.2-1.62,14.66-.06-.06-10.24-10.23-10.37-10.36-1.77-1.88-4.27-3.05-7.05-3.05-4.23,0-7.81,2.71-9.13,6.48h-6.38v3.12c-.07,.02-2.27-2.62-2.27-2.62-9.26,1.8-14.86,11.02-15.65,19.16-.64,6.52,1.33,13.86,6.5,19.06,.24,.24,26.49,26.49,26.77,26.77h68.25c12.03,.01,21.78-9.74,21.78-21.77Z"/><g><path class="cls-3" d="M66.14,47.03c-1.11-3.18-1.85-6.72-2.09-10.54-.49-7.92,.68-13.63,3.37-16.49,1-1.06,2.04-1.94,3.51-2.32v-3.89c-2.58,.5-4.73,1.67-6.43,3.47-3.57,3.8-5.02,10.17-4.45,19.48,.26,4.22,1.06,8.09,2.25,11.57l3.83-1.28Z"/><path class="cls-3" d="M85.19,63.42c-6.47,0-13.64-5.8-17.42-15.24l-5.93,2.13c4.8,12.23,14.56,19.38,23.35,19.38v-6.27Z"/><path class="cls-3" d="M85.19,63.42c6.48,0,13.64-5.8,17.42-15.24l5.93,2.13c-4.81,12.23-14.56,19.38-23.35,19.38v-6.27Z"/><path class="cls-3" d="M54.6,131.96c6.09,0,11.48-1.91,16.1-5.71,9.79-8.05,15.43-24.04,16.82-47.62h-5.34c-1.3,21.78-6.37,36.51-14.87,43.5-4.88,4.02-10.95,5.34-18.05,3.94-10.95-2.16-15.05-11.36-14.25-19.53,.59-6.05,4-12.15,10.35-14.11v-5.57c-9.27,1.8-14.87,11.02-15.66,19.16-1,10.23,4.38,22.5,18.53,25.29,2.2,.43,4.33,.65,6.37,.65Z"/><rect class="cls-3" x="81.99" y="66.2" width="6.41" height="10.25"/><path class="cls-3" d="M73.23,13.48s4.23-1.44,5.3-1.36c1.07,.09,1.21,2.61,1.21,3.54,0,.94-.14,3.46-1.21,3.55-1.07,.08-5.3-1.36-5.3-1.36h-.77v-4.37h.77Z"/><path class="cls-3" d="M104.24,47.03c1.11-3.18,1.85-6.72,2.09-10.54,.49-7.92-.68-13.62-3.37-16.49-1-1.06-2.04-1.94-3.51-2.32v-3.9c2.58,.51,4.74,1.67,6.43,3.48,3.57,3.8,5.02,10.17,4.45,19.48-.26,4.22-1.06,8.09-2.25,11.57l-3.83-1.28Z"/><path class="cls-3" d="M97.15,13.48s-4.23-1.44-5.3-1.36c-1.07,.09-1.21,2.61-1.21,3.54,0,.94,.14,3.46,1.21,3.55,1.07,.08,5.3-1.36,5.3-1.36h.77v-4.37h-.77Z"/><path class="cls-3" d="M47.62,86.36h6.38c1.33-3.77,4.91-6.48,9.13-6.48,5.35,0,9.69,4.34,9.69,9.69s-4.34,9.69-9.69,9.68c-4.23,0-7.81-2.71-9.13-6.48h-6.38v-6.41Zm8.16,3.21c0,4.06,3.29,7.35,7.35,7.35s7.35-3.29,7.35-7.35c0-4.06-3.29-7.35-7.35-7.35-4.06,0-7.35,3.29-7.35,7.35Z"/><path class="cls-3" d="M57.74,89.57c0,2.98,2.42,5.4,5.4,5.4s5.39-2.42,5.39-5.4c0-2.98-2.42-5.39-5.39-5.39s-5.39,2.42-5.4,5.39Z"/></g></g></g></g></svg>