<?xml version="1.0" encoding="UTF-8"?><svg id="Layer_2" xmlns="http://www.w3.org/2000/svg" xmlns:xlink="http://www.w3.org/1999/xlink" viewBox="0 0 390 390"><defs><style>.cls-1{fill:none;}.cls-2{clip-path:url(#clippath);}.cls-3{fill:#e3f0fc;}.cls-4{fill:#fdfdfd;}.cls-5{fill:#c8d0da;}.cls-6{fill:#2f3542;}</style><clipPath id="clippath"><circle class="cls-1" cx="195" cy="195" r="195"/></clipPath></defs><g id="Layer_2-2"><g class="cls-2"><g><path class="cls-5" d="M209.56,402.52h-1.6c-2.49-2.25-6.86-2.25-9.58,0h-6.39c-2.67-2.27-6.98-2.27-9.58,0h-3.19c-.52-1.61-1.86-1.55-3.2-1.69-8.32-.87-16.6-2.07-24.78-3.89C40.83,372.33-28.84,263.23-4.32,153.32,14.21,70.24,81.84,7.4,165.74-4.78c4.5-.65,9.16-.43,13.5-2.14h31.13c.39,1.01,1.29,.72,2.03,.77,15.42,1.17,30.63,3.81,45.15,9,78.56,28.08,125.41,83.14,139.88,165.49,.81,4.62,.55,9.39,2.1,13.89v27.14c-2.08-.24-3.11-1.93-4.4-3.22-33.74-33.72-67.47-67.46-101.21-101.18-1.38-1.38-2.52-3.17-4.73-3.44,.76-1.72-.78-2.35-1.62-3.2-5.77-5.84-11.7-11.53-17.35-17.49-2.11-2.22-3.24-2.25-5.44-.03-12.19,12.34-24.56,24.49-36.87,36.7-3.93-4.05-7.82-8.13-11.81-12.12-1.55-1.55-2.8-3.56-5.26-3.92,.7-1.55-.68-2.12-1.44-2.89-5.95-6.07-12.03-12.02-17.88-18.19-1.84-1.94-2.82-1.72-4.58,.06-13.83,13.98-27.76,27.85-41.66,41.75-24.14,24.14-48.29,48.27-72.37,72.48-.87,.88-3.34,1.41-1.79,3.65,.14,.22,.24,.49,.42,.67,38.58,38.61,77.16,77.22,115.75,115.82,.82,.82,1.54,1.94,3,1.24,.16,1.42,1.06,2.39,2.01,3.34,8.24,8.29,16.37,16.69,24.48,25.11,13.65,14.17,27.77,27.9,41.66,41.84,1.2,1.2,2.75,2.18,3.02,4.08-15.43,5.87-31.51,8.78-47.86,10.44-1.5,.15-3.28-.39-4.03,1.63Z"/><path class="cls-6" d="M261.45,390.45c-.27-1.9-1.82-2.88-3.02-4.08-13.9-13.94-28.01-27.66-41.66-41.84-8.11-8.42-16.24-16.82-24.48-25.11-.95-.96-1.85-1.92-2.01-3.34,6.25-6.34,12.38-12.8,18.82-18.94,2.47-2.35,2.18-3.56-.1-5.83-30.36-30.21-60.61-60.52-90.9-90.8-.83-.83-1.77-1.56-2.66-2.33-.45-2.06,1.41-2.71,2.44-3.74,29.7-29.84,59.45-59.63,89.19-89.43,1.21-1.22,2.51-2.35,3.77-3.52,2.45,.36,3.71,2.37,5.26,3.92,3.98,3.99,7.88,8.07,11.81,12.12-.88,.98-1.72,2-2.65,2.93-24.72,24.74-49.47,49.46-74.13,74.26-.87,.87-3.36,1.4-1.78,3.64,.14,.23,.23,.49,.42,.67,38.6,38.63,77.21,77.24,115.77,115.91,1.73,1.73,2.65,1.3,4.11-.19,5.76-5.89,11.49-11.82,17.51-17.43,2.59-2.41,2.48-3.63-.01-6.11-30.35-30.16-60.56-60.45-90.81-90.7-.83-.83-1.77-1.55-2.66-2.33-.46-2.06,1.41-2.71,2.44-3.74,29.65-29.73,59.34-59.42,89.04-89.1,1.31-1.31,2.7-2.53,4.05-3.79,2.21,.27,3.35,2.06,4.73,3.44,33.74,33.72,67.46,67.46,101.21,101.18,1.29,1.28,2.32,2.98,4.4,3.22v3.99c-.8,.28-.75,.98-.79,1.63-.94,14.06-3.62,27.81-7.8,41.23-16.82,53.95-50.18,94.43-99.68,121.58-9.48,5.2-19.27,9.84-29.8,12.66Z"/><path class="cls-3" d="M115.45,198.17c.89,.77,1.83,1.5,2.66,2.33,30.29,30.28,60.54,60.59,90.9,90.8,2.28,2.27,2.56,3.48,.1,5.83-6.44,6.14-12.57,12.61-18.82,18.94-1.46,.7-2.18-.42-3-1.24-38.59-38.6-77.17-77.21-115.75-115.82-.18-.18-.28-.44-.42-.67,14.78-.06,29.55-.11,44.33-.17Z"/><path class="cls-4" d="M115.45,198.17c-14.78,.06-29.55,.11-44.33,.17-1.55-2.23,.92-2.77,1.79-3.65,24.07-24.21,48.23-48.34,72.37-72.48,13.9-13.9,27.83-27.78,41.66-41.75,1.76-1.78,2.73-2.01,4.58-.06,5.85,6.17,11.93,12.12,17.88,18.19,.76,.77,2.14,1.35,1.44,2.89-1.26,1.17-2.55,2.31-3.77,3.52-29.75,29.8-59.49,59.59-89.19,89.43-1.03,1.03-2.89,1.68-2.44,3.74Z"/><path class="cls-4" d="M289.19,101.54c-1.35,1.26-2.74,2.48-4.05,3.79-29.69,29.69-59.39,59.37-89.04,89.1-1.03,1.03-2.89,1.68-2.44,3.74-14.77,.06-29.55,.12-44.32,.17-1.58-2.24,.91-2.77,1.78-3.64,24.66-24.8,49.41-49.52,74.13-74.26,.93-.93,1.77-1.95,2.65-2.93,12.31-12.22,24.68-24.37,36.87-36.7,2.2-2.22,3.34-2.2,5.44,.03,5.65,5.96,11.58,11.65,17.35,17.49,.85,.86,2.39,1.48,1.62,3.2Z"/><path class="cls-3" d="M149.35,198.35c14.77-.06,29.55-.12,44.32-.17,.89,.77,1.83,1.5,2.66,2.33,30.26,30.25,60.47,60.54,90.81,90.7,2.49,2.48,2.6,3.7,.01,6.11-6.03,5.61-11.76,11.54-17.51,17.43-1.46,1.49-2.38,1.93-4.11,.19-38.55-38.67-77.17-77.28-115.77-115.91-.18-.18-.28-.45-.42-.67Z"/></g></g></g></svg>