<?xml version="1.0" encoding="UTF-8"?><svg id="Layer_2" xmlns="http://www.w3.org/2000/svg" viewBox="0 0 164 164"><defs><style>.cls-1{fill:#fff;}.cls-2{fill:#c9d1db;}.cls-3{fill:#2f3542;}</style></defs><g id="Layer_2-2"><circle class="cls-2" cx="82" cy="82" r="82"/><g><g><path class="cls-3" d="M81.98,88.99c1.83-3.21,3.02-6.73,4.28-10.46,1.31-3.87,2.66-7.88,4.81-11.57,2.82-4.85,6.98-8.87,11.84-11.68V24.83c0-3.85-3.12-6.97-6.97-6.97h-27.86c-3.85,0-6.97,3.12-6.97,6.97V61.1H24.83c-3.85,0-6.97,3.12-6.97,6.97v27.86c0,3.85,3.12,6.97,6.97,6.97H60.82c8.68-1.03,16.81-6.3,21.15-13.91Z"/><path class="cls-3" d="M139.17,61.1h-36.21c-3.08,2.22-5.72,5.06-7.63,8.34-1.9,3.26-3.11,6.85-4.39,10.66-1.28,3.79-2.6,7.71-4.67,11.33-5.16,9.04-14.84,15.27-25.17,16.4v31.33c0,3.85,3.12,6.97,6.97,6.97h27.86c3.85,0,6.97-3.12,6.97-6.97v-36.27h36.27c3.85,0,6.97-3.12,6.97-6.97v-27.86c0-3.85-3.12-6.97-6.97-6.97Z"/></g><path class="cls-1" d="M102.73,23.31c-.69-3.12-3.47-5.45-6.8-5.45h-27.86c-3.85,0-6.97,3.12-6.97,6.97V61.1H24.83c-3.85,0-6.97,3.12-6.97,6.97v27.86c0,.88,.17,1.71,.46,2.48,16.31,.05,32.56-7.61,42.64-20.48,4.35-5.56,7.58-11.9,10.99-18.61,3.55-6.97,7.21-14.18,12.3-20.56,5.04-6.33,11.39-11.56,18.47-15.44Z"/></g></g></svg>