<?xml version="1.0" encoding="UTF-8"?><svg id="Layer_2" xmlns="http://www.w3.org/2000/svg" xmlns:xlink="http://www.w3.org/1999/xlink" viewBox="0 0 152 152"><defs><style>.cls-1{fill:none;}.cls-2{clip-path:url(#clippath);}.cls-3{fill:#fff;}.cls-4{fill:#c9d1db;}.cls-5{fill:#2f3542;}</style><clipPath id="clippath"><circle class="cls-1" cx="76" cy="76" r="76"/></clipPath></defs><g id="Layer_2-2"><g class="cls-2"><g><rect class="cls-4" y="-.78" width="153" height="153" rx="20.41" ry="20.41"/><path class="cls-5" d="M153,131.81v-60.89c-.09-.09-38.91-38.92-38.92-38.93-2.75-2.77-7.06-4.57-11.92-4.57-8.3,0-15.03,5.21-15.03,11.64v17.29c-.15-.14-24.23-24.22-24.37-24.36-2.75-2.77-7.06-4.57-11.92-4.57-8.3,0-15.03,5.21-15.03,11.64V112.37c0,2.84,1.32,5.45,3.51,7.47,.09,.09,32.38,32.38,32.38,32.38h60.9c11.27,0,20.41-9.14,20.41-20.41Z"/><g><g><path class="cls-3" d="M50.84,27.42c-8.3,0-15.03,5.21-15.03,11.64V112.37c0,6.43,6.73,11.64,15.03,11.64s15.03-5.21,15.03-11.64V39.06c0-6.43-6.73-11.64-15.03-11.64Zm14.06,84.3c0,6.31-6.3,11.43-14.06,11.43s-14.06-5.12-14.06-11.43v-36.01h22.13v-31.11c0-1.69,.76-3.06,1.69-3.06s1.69,1.37,1.69,3.06v31.11h2.62v36.01Z"/><path class="cls-3" d="M57.19,117.5c-.93,0,1.71-1.19,1.71-12.68v-29.1h3.37v30c0,8.46-4.16,11.78-5.09,11.78Z"/></g><g><path class="cls-3" d="M117.19,112.37V39.06c0-6.43-6.73-11.64-15.03-11.64s-15.03,5.21-15.03,11.64V112.37c0,6.43,6.73,11.64,15.03,11.64s15.03-5.21,15.03-11.64Zm-.97-36.65h-2.62v31.11c0,1.69-.75,3.06-1.69,3.06s-1.69-1.37-1.69-3.06v-31.11h-22.13V39.71c0-6.31,6.3-11.44,14.06-11.44s14.06,5.12,14.06,11.44v36.01Z"/><path class="cls-3" d="M108.51,33.94c-.93,0,1.71,1.19,1.71,12.68v29.1h3.37v-30c0-8.46-4.16-11.78-5.09-11.78Z"/></g></g></g></g></g></svg>