<?xml version="1.0" encoding="UTF-8"?><svg id="Layer_2" xmlns="http://www.w3.org/2000/svg" xmlns:xlink="http://www.w3.org/1999/xlink" viewBox="0 0 152 152"><defs><style>.cls-1{fill:none;}.cls-2{clip-path:url(#clippath);}.cls-3{fill:#fff;}.cls-4{fill:#c9d1db;}.cls-5{fill:#2f3542;}</style><clipPath id="clippath"><circle class="cls-1" cx="76" cy="76" r="76"/></clipPath></defs><g id="Layer_2-2"><g class="cls-2"><g><rect class="cls-4" x=".23" y=".04" width="151.77" height="151.77" rx="20.24" ry="20.24"/><path class="cls-5" d="M152,118.73v-43.58c-26.17-26.17-35.77-35.77-48.24-48.24-1.77-1.77-4.54-1.86-6.19-.21l-18.79,18.8c.88,.88,72.4,72.4,73.23,73.23Z"/><path class="cls-5" d="M44.38,79.88l-18.8,18.8c-1.65,1.65-1.56,4.42,.21,6.19,0,0,46.3,46.3,46.94,46.94h43.57c-7.26-7.27-71.93-71.93-71.93-71.93Z"/><path class="cls-5" d="M152,124.03C38.68,10.72,68.58,40.62,54.66,26.7c-1.65-1.65-4.43-1.56-6.19,.21l-22.67,22.68c-1.77,1.76-1.86,4.53-.21,6.19,6.95,6.95,48.33,48.33,96.03,96.03h10.14c11.18,0,20.24-9.06,20.24-20.24v-7.53Z"/><g><path class="cls-3" d="M126.64,98.68c1.65,1.65,1.56,4.43-.21,6.19l-22.67,22.67c-.85,.85-1.98,1.35-3.14,1.39-1.16,.04-2.26-.38-3.05-1.18L25.59,55.78c-1.65-1.65-1.56-4.43,.21-6.19l22.67-22.68c1.77-1.77,4.54-1.86,6.19-.21L126.64,98.68ZM53.77,29.53c.65-.65,.65-1.71,0-2.37-.65-.65-1.72-.65-2.37,0-.65,.65-.65,1.72,0,2.37,.66,.66,1.72,.65,2.37,0Zm8.05,8.05c.65-.65,.65-1.72,0-2.37-.31-.32-.73-.49-1.19-.49-.44,0-.86,.17-1.18,.49-.32,.32-.49,.74-.49,1.19,0,.44,.17,.86,.49,1.18,.65,.65,1.71,.65,2.37,0Zm8.04,8.04c.32-.31,.49-.73,.49-1.18s-.17-.86-.49-1.18c-.65-.65-1.71-.65-2.37,0-.65,.65-.65,1.72,0,2.37,.66,.65,1.72,.65,2.37,0Zm5.68,8.05c.65,.65,1.71,.65,2.37,0,.65-.66,.65-1.72,0-2.38-.32-.32-.74-.49-1.19-.49-.45,0-.86,.18-1.18,.49-.32,.31-.5,.73-.49,1.18,0,.45,.17,.87,.49,1.18h0Zm10.41,8.05c.31-.31,.49-.73,.49-1.18,0-.45-.18-.87-.49-1.19-.65-.65-1.72-.65-2.37,0-.65,.65-.65,1.72,0,2.37,.66,.65,1.72,.65,2.37,0Zm8.05,8.05c.65-.65,.65-1.72,0-2.37-.66-.65-1.72-.66-2.37,0-.65,.65-.65,1.72,0,2.37,.66,.66,1.72,.66,2.37,0Zm8.05,8.05c.65-.65,.65-1.72,0-2.37-.65-.65-1.72-.65-2.37,0-.65,.65-.65,1.72,0,2.37,.66,.65,1.72,.66,2.37,0Zm8.04,8.04c.32-.31,.49-.73,.49-1.17,0-.45-.17-.87-.49-1.2-.65-.65-1.72-.65-2.37,0-.65,.66-.65,1.72,0,2.37,.65,.65,1.72,.65,2.37,0Zm5.68,8.05c.32,.32,.74,.49,1.18,.49,.45,0,.87-.17,1.18-.49,.32-.32,.49-.73,.49-1.18,0-.45-.17-.87-.49-1.18-.65-.65-1.71-.65-2.37,0-.31,.32-.49,.74-.49,1.19,0,.45,.18,.86,.49,1.19h0Zm9.23,8.53c.45,0,.86-.17,1.18-.49,.65-.65,.66-1.71,0-2.37-.32-.32-.74-.49-1.19-.49-.45,0-.87,.17-1.18,.49-.65,.65-.65,1.72,0,2.37,.31,.32,.73,.49,1.18,.49ZM51.45,39.89c.66-.65,.65-1.71,0-2.37-.65-.65-1.71-.65-2.36,0-.32,.31-.49,.73-.49,1.18,0,.45,.18,.86,.49,1.19,.66,.65,1.72,.65,2.37,0Zm8.05,8.05c.32-.32,.49-.73,.49-1.18s-.17-.87-.49-1.19c-.32-.31-.74-.49-1.19-.49-.45,0-.87,.17-1.18,.49-.31,.31-.49,.73-.49,1.18,0,.45,.18,.88,.49,1.19,.65,.65,1.72,.65,2.37,0Zm6.86,8.54c.45,0,.87-.17,1.18-.49,.32-.32,.49-.74,.49-1.18s-.18-.87-.49-1.19c-.32-.32-.74-.49-1.19-.49-.45,0-.87,.17-1.18,.49-.32,.32-.49,.74-.5,1.18,0,.45,.18,.87,.5,1.19,.31,.32,.73,.49,1.18,.49Zm33.36,31.69c.65-.65,.65-1.72,0-2.36-.65-.65-1.71-.65-2.37,0-.65,.65-.65,1.71,0,2.37,.66,.65,1.72,.65,2.37,0Zm8.05,8.04c.65-.65,.65-1.71,0-2.37-.65-.65-1.72-.65-2.37,0-.31,.32-.49,.74-.49,1.18,0,.44,.18,.87,.5,1.19,.65,.65,1.71,.65,2.36,0Zm8.05,8.05c.65-.65,.65-1.72,0-2.37-.32-.32-.74-.49-1.19-.49-.45,0-.87,.18-1.19,.49-.31,.31-.49,.73-.49,1.17,0,.45,.17,.87,.49,1.19,.65,.65,1.71,.65,2.36,0ZM41.09,42.21c.65-.65,.65-1.72,0-2.37-.65-.65-1.71-.65-2.37,0-.65,.65-.65,1.72,0,2.37,.65,.65,1.72,.65,2.37,0Zm8.04,8.05c.32-.32,.49-.74,.49-1.19,0-.44-.17-.87-.49-1.18-.65-.65-1.71-.65-2.37,0-.32,.32-.49,.74-.5,1.18,0,.45,.18,.87,.49,1.18,.65,.66,1.72,.65,2.37,0Zm6.87,8.53c.44,0,.86-.18,1.18-.49,.65-.65,.65-1.72,0-2.37-.65-.65-1.72-.65-2.37,0-.65,.65-.65,1.72,0,2.37,.32,.32,.74,.49,1.19,.49Zm39.04,39.73c.32,.32,.74,.5,1.19,.49,.44,0,.86-.18,1.17-.5,.32-.31,.49-.74,.5-1.19,0-.44-.18-.86-.5-1.18-.65-.65-1.71-.65-2.36,0-.65,.65-.65,1.72,0,2.37h0Zm8.05,8.05c.32,.32,.74,.49,1.19,.49,.45,0,.86-.18,1.17-.5,.32-.31,.49-.73,.49-1.17,0-.45-.17-.88-.5-1.2-.65-.65-1.71-.65-2.36,0-.32,.32-.49,.73-.49,1.18,0,.45,.17,.86,.49,1.18h0Zm10.41,8.05c.65-.65,.65-1.71,0-2.36-.65-.65-1.71-.65-2.37,0-.65,.65-.65,1.72,0,2.37,.65,.65,1.71,.64,2.37,0ZM36.33,52.49c.65,.65,1.71,.65,2.36,0,.32-.31,.49-.73,.49-1.17,0-.45-.18-.87-.49-1.19-.65-.65-1.71-.65-2.36,0-.32,.32-.49,.73-.49,1.18,0,.45,.17,.87,.49,1.18h0Zm10.41,8.05c.66-.65,.65-1.72,0-2.37-.65-.65-1.72-.66-2.37,0-.65,.65-.65,1.72,0,2.37,.66,.65,1.72,.65,2.37,0Zm8.05,8.05c.65-.65,.65-1.72,0-2.37-.65-.65-1.71-.65-2.36,0-.65,.65-.65,1.72,0,2.37,.65,.65,1.71,.65,2.37,0Zm32.18,32.18c.65-.65,.65-1.72,0-2.37-.66-.65-1.72-.65-2.37,0-.65,.65-.65,1.71,0,2.37,.65,.65,1.72,.65,2.37,0Zm6.86,8.53c.45,0,.87-.18,1.18-.5,.65-.65,.65-1.71,0-2.37-.65-.65-1.72-.65-2.37,0-.32,.32-.49,.74-.5,1.18,0,.45,.18,.87,.49,1.19,.32,.31,.74,.48,1.18,.49Zm8.05,8.04c.44,0,.86-.18,1.18-.49,.65-.65,.65-1.72,0-2.37-.31-.31-.73-.49-1.18-.49-.44,0-.86,.17-1.18,.49-.65,.65-.66,1.72,0,2.37,.32,.32,.74,.49,1.19,.49ZM28.34,54.81c.65-.65,.65-1.71,0-2.37-.65-.65-1.72-.65-2.37,0-.65,.65-.65,1.72,0,2.37,.66,.65,1.72,.66,2.38,0Zm8.04,8.04c.65-.65,.65-1.71,0-2.37-.32-.32-.74-.49-1.19-.49-.45,0-.87,.17-1.19,.49-.31,.32-.49,.74-.49,1.18,0,.45,.17,.87,.5,1.18,.65,.65,1.72,.65,2.36,0Zm8.04,8.05c.65-.65,.65-1.72,0-2.37-.65-.65-1.72-.65-2.37,0-.65,.65-.65,1.71,0,2.37,.65,.65,1.72,.65,2.36,0Zm8.05,8.04c.65-.65,.65-1.72,0-2.37-.65-.65-1.72-.65-2.37,0-.32,.31-.49,.73-.49,1.17,0,.45,.18,.87,.49,1.19,.65,.65,1.72,.65,2.37,0Zm8.04,8.05c.32-.32,.49-.74,.49-1.18s-.17-.87-.49-1.19c-.65-.65-1.72-.66-2.37,0-.65,.65-.64,1.72,.01,2.37,.65,.65,1.71,.65,2.36,0Zm8.05,8.04c.65-.66,.65-1.72,0-2.37-.66-.65-1.72-.65-2.37,0-.65,.65-.65,1.72,0,2.37,.65,.65,1.71,.65,2.37,0Zm8.05,8.04c.65-.65,.65-1.72,0-2.37-.32-.32-.74-.49-1.19-.49-.45,0-.87,.17-1.18,.49-.65,.65-.65,1.72,0,2.37,.65,.65,1.71,.65,2.36,0Zm6.86,8.53c.45,0,.87-.17,1.18-.48,.65-.65,.65-1.72,0-2.37-.65-.65-1.72-.65-2.37,0-.65,.65-.65,1.72,0,2.37,.32,.32,.74,.49,1.19,.48Zm6.86,7.56c.32,.32,.74,.49,1.19,.49,.44,0,.87-.17,1.18-.49,.31-.31,.49-.73,.49-1.17,0-.45-.17-.87-.49-1.19-.65-.65-1.71-.64-2.37,0-.65,.65-.65,1.71,0,2.36h0Zm8.05,8.05c.32,.32,.74,.49,1.19,.49,.44,0,.86-.18,1.18-.49,.32-.31,.49-.73,.49-1.18,0-.45-.17-.87-.49-1.19-.32-.32-.74-.49-1.19-.49s-.87,.17-1.18,.49c-.65,.65-.65,1.71,0,2.36h0Zm-23.6-73.39c-.86-.86-2.64-.47-3.98,.88l-17.21,17.21c-1.34,1.34-1.74,3.13-.88,3.99l24.74,24.75c.41,.41,1.07,.55,1.81,.38,.75-.17,1.53-.62,2.17-1.26l17.22-17.21c1.34-1.35,1.73-3.13,.87-3.98l-24.75-24.75Z"/><path class="cls-3" d="M84.73,43.26c-.31-.32-.73-.49-1.17-.49-.45,0-.87,.17-1.2,.49-.65,.66-.65,1.72,0,2.38,.65,.65,1.71,.65,2.37,0,.65-.65,.65-1.72,0-2.37Zm8.05-5.68c.31-.31,.49-.73,.49-1.18,0-.45-.18-.87-.49-1.18-.32-.32-.74-.49-1.18-.49-.45,0-.87,.17-1.18,.49-.65,.65-.65,1.71,0,2.37,.32,.31,.74,.49,1.18,.49,.45,0,.87-.18,1.19-.49h0Zm8.53-9.22c0-.45-.17-.87-.49-1.18-.65-.65-1.71-.65-2.37,0-.32,.32-.49,.74-.49,1.19,0,.45,.18,.87,.49,1.18,.65,.65,1.72,.65,2.37,0,.31-.31,.49-.73,.49-1.18Zm-6.22,17.22c-.65-.65-1.71-.65-2.36,0-.65,.65-.65,1.72,0,2.38,.32,.31,.73,.49,1.18,.49s.87-.18,1.19-.5c.65-.65,.65-1.71,0-2.37Zm8.05-8.04c-.66-.65-1.72-.65-2.37,0-.32,.32-.49,.74-.49,1.19,0,.44,.18,.87,.5,1.19,.31,.31,.73,.49,1.17,.49,.45,0,.87-.17,1.19-.5,.65-.65,.65-1.71,0-2.36Zm-5.74,20.78c.32-.32,.5-.74,.49-1.19,0-.44-.18-.86-.49-1.17-.32-.32-.74-.49-1.18-.5-.44,0-.86,.18-1.19,.5-.65,.65-.65,1.71,0,2.36,.65,.65,1.71,.65,2.37,0h0Zm8.05-8.05c.32-.32,.49-.74,.49-1.19,0-.45-.18-.86-.5-1.18-.31-.31-.73-.49-1.17-.49-.45,0-.88,.17-1.2,.5-.65,.65-.65,1.71,0,2.36,.32,.32,.73,.49,1.18,.49,.45,0,.86-.17,1.18-.48h.01Zm8.04-10.42c-.65-.65-1.71-.65-2.37,0-.65,.65-.65,1.71,0,2.37,.65,.65,1.72,.65,2.37,0,.65-.65,.65-1.71,0-2.37Zm-5.32,19.67c0-.45-.18-.87-.5-1.18-.65-.65-1.71-.65-2.36,0-.65,.65-.65,1.71,0,2.37,.32,.32,.73,.49,1.18,.49,.44,0,.87-.17,1.19-.49,.31-.32,.48-.73,.49-1.18Zm8.04-8.05c0-.45-.17-.87-.49-1.18-.65-.65-1.72-.65-2.37,0-.31,.31-.49,.74-.49,1.18,0,.45,.17,.87,.49,1.18,.65,.65,1.72,.65,2.37,0,.32-.32,.49-.74,.49-1.19Zm-5.73,18.4c0-.45-.17-.87-.48-1.18-.66-.65-1.72-.65-2.37,0-.65,.66-.65,1.72,0,2.38,.65,.65,1.72,.65,2.37,0,.32-.32,.49-.74,.49-1.19Zm7.55-6.86c.32-.31,.49-.74,.49-1.19s-.17-.87-.49-1.18c-.31-.31-.73-.49-1.17-.49-.45,0-.88,.17-1.19,.49-.65,.66-.65,1.72,0,2.37,.65,.65,1.71,.65,2.36,0h0Zm8.05-8.05c.32-.32,.49-.74,.49-1.19s-.17-.86-.49-1.18c-.31-.32-.73-.49-1.18-.49-.45,0-.87,.17-1.19,.49-.32,.32-.49,.74-.49,1.19s.17,.87,.49,1.19c.65,.65,1.71,.65,2.36,0h0Zm-47.33-9.47l18.79-18.8c1.65-1.65,4.43-1.56,6.19,.21l22.67,22.68c.85,.85,1.35,1.98,1.39,3.14,.04,1.16-.38,2.26-1.18,3.05l-18.8,18.79-29.08-29.08Z"/><path class="cls-3" d="M44.52,85.84c.65-.65,.65-1.71,0-2.37-.65-.65-1.72-.65-2.38,0-.31,.32-.49,.75-.49,1.2,0,.44,.17,.86,.49,1.17,.65,.65,1.72,.65,2.37,0Zm-8.05,8.05c.32-.32,.49-.74,.49-1.19s-.18-.86-.49-1.18c-.65-.65-1.71-.65-2.37,0-.32,.32-.49,.74-.49,1.18,0,.45,.17,.86,.49,1.18,.31,.32,.74,.49,1.18,.49,.45,0,.87-.18,1.18-.49h0Zm-8.04,8.04c.65-.65,.65-1.72,0-2.37-.31-.32-.73-.49-1.18-.49-.44,0-.87,.17-1.19,.49-.65,.65-.64,1.72,0,2.37,.32,.32,.73,.49,1.18,.49s.86-.17,1.18-.49Zm18.4-5.73c.32-.32,.5-.74,.5-1.19s-.17-.87-.49-1.18c-.65-.65-1.72-.65-2.38,0-.65,.65-.65,1.71,0,2.36,.65,.66,1.72,.65,2.37,0Zm-8.05,8.05c.32-.32,.5-.74,.5-1.2,0-.44-.17-.86-.49-1.17-.32-.32-.74-.49-1.19-.49-.45,0-.87,.17-1.19,.49-.65,.65-.65,1.71,0,2.37,.65,.65,1.71,.65,2.36,0Zm18.41-5.73c.65-.65,.65-1.71,0-2.37-.65-.65-1.71-.65-2.36,0-.33,.32-.5,.74-.5,1.19,0,.45,.17,.87,.5,1.18,.31,.32,.73,.49,1.17,.49,.45,0,.87-.17,1.19-.49h0Zm-8.04,8.04c.32-.32,.49-.73,.48-1.18,0-.45-.17-.86-.49-1.18-.65-.65-1.71-.65-2.36,0-.32,.32-.5,.75-.5,1.2,0,.44,.18,.86,.49,1.17,.31,.32,.73,.49,1.18,.5,.45,0,.87-.17,1.19-.49h0Zm-8.05,8.05c.65-.66,.65-1.72,0-2.37-.65-.65-1.71-.65-2.37,0-.65,.65-.65,1.71,0,2.37,.65,.65,1.72,.66,2.37,0Zm18.48-5.81c.32-.32,.5-.75,.49-1.19,0-.45-.17-.87-.49-1.18-.65-.65-1.72-.65-2.37,0-.65,.65-.65,1.71,0,2.37,.31,.32,.73,.49,1.18,.5,.44,0,.86-.18,1.18-.49Zm-8.04,8.04c.65-.65,.65-1.72,0-2.37-.31-.32-.73-.49-1.18-.49-.45,0-.87,.17-1.18,.49-.65,.65-.66,1.72,0,2.37,.31,.32,.73,.49,1.18,.49,.44,0,.87-.17,1.19-.49Zm18.41-5.73c.65-.65,.65-1.72,0-2.37-.65-.65-1.72-.65-2.38,0-.65,.65-.64,1.72,0,2.37,.32,.31,.73,.49,1.18,.49,.45,0,.87-.17,1.19-.49Zm-8.05,8.04c.65-.65,.65-1.71,0-2.36-.65-.65-1.72-.65-2.37,0-.32,.32-.49,.74-.49,1.19,0,.44,.18,.86,.49,1.17,.32,.32,.74,.49,1.18,.49,.45,0,.87-.17,1.19-.49h0Zm-8.05,8.05c.66-.65,.66-1.71,0-2.36-.32-.32-.73-.49-1.19-.49s-.87,.18-1.19,.49c-.32,.32-.49,.74-.49,1.19,0,.45,.17,.86,.49,1.18,.31,.32,.73,.49,1.18,.49,.45,0,.87-.17,1.19-.49h0Zm19.61-18.25l-18.8,18.8c-.79,.79-1.89,1.22-3.05,1.18-1.16-.04-2.29-.54-3.14-1.39l-22.68-22.68c-1.77-1.77-1.86-4.54-.21-6.19l18.8-18.8,29.08,29.08Z"/></g></g></g></g></svg>