<?xml version="1.0" encoding="UTF-8"?><svg id="Layer_2" xmlns="http://www.w3.org/2000/svg" xmlns:xlink="http://www.w3.org/1999/xlink" viewBox="0 0 390 390"><defs><style>.cls-1{fill:none;}.cls-2{clip-path:url(#clippath);}.cls-3{fill:#e3f0fc;}.cls-4{fill:#fdfdfd;}.cls-5{fill:#324a5e;}.cls-6{fill:#2b3b4e;}</style><clipPath id="clippath"><circle class="cls-1" cx="195" cy="195" r="195"/></clipPath></defs><g id="Layer_2-2"><g class="cls-2"><g><path class="cls-5" d="M402.52,209.56v-1.6c-2.25-2.49-2.25-6.86,0-9.58v-6.39c-2.27-2.67-2.27-6.98,0-9.58v-3.19c-1.61-.52-1.55-1.86-1.69-3.2-.87-8.32-2.07-16.6-3.89-24.78C372.33,40.83,263.23-28.84,153.32-4.32,70.24,14.21,7.4,81.84-4.78,165.74c-.65,4.5-.43,9.16-2.14,13.5v31.13c1.01,.39,.72,1.29,.77,2.03,1.17,15.42,3.81,30.63,9,45.15,28.08,78.56,83.14,125.41,165.49,139.88,4.62,.81,9.39,.55,13.89,2.1h27.14c-.24-2.08-1.93-3.11-3.22-4.4-33.72-33.74-67.46-67.47-101.18-101.21-1.38-1.38-3.17-2.52-3.44-4.73-1.72,.76-2.35-.78-3.2-1.62-5.84-5.77-11.53-11.7-17.49-17.35-2.22-2.11-2.25-3.24-.03-5.44,12.34-12.19,24.49-24.56,36.7-36.87-4.05-3.93-8.13-7.82-12.12-11.81-1.55-1.55-3.56-2.8-3.92-5.26-1.55,.7-2.12-.68-2.89-1.44-6.07-5.95-12.02-12.03-18.19-17.88-1.94-1.84-1.72-2.82,.06-4.58,13.98-13.83,27.85-27.76,41.75-41.66,24.14-24.14,48.27-48.29,72.48-72.37,.88-.87,1.41-3.34,3.65-1.79,.22,.14,.49,.24,.67,.42,38.61,38.58,77.22,77.16,115.82,115.75,.82,.82,1.94,1.54,1.24,3,1.42,.16,2.39,1.06,3.34,2.01,8.29,8.24,16.69,16.37,25.11,24.48,14.17,13.65,27.9,27.77,41.84,41.66,1.2,1.2,2.18,2.75,4.08,3.02,5.87-15.43,8.78-31.51,10.44-47.86,.15-1.5-.39-3.28,1.63-4.03Z"/><path class="cls-6" d="M390.45,261.45c-1.9-.27-2.88-1.82-4.08-3.02-13.94-13.9-27.66-28.01-41.84-41.66-8.42-8.11-16.82-16.24-25.11-24.48-.96-.95-1.92-1.85-3.34-2.01-6.34,6.25-12.8,12.38-18.94,18.82-2.35,2.47-3.56,2.18-5.83-.1-30.21-30.36-60.52-60.61-90.8-90.9-.83-.83-1.56-1.77-2.33-2.66-2.06-.45-2.71,1.41-3.74,2.44-29.84,29.7-59.63,59.45-89.43,89.19-1.22,1.21-2.35,2.51-3.52,3.77,.36,2.45,2.37,3.71,3.92,5.26,3.99,3.98,8.07,7.88,12.12,11.81,.98-.88,2-1.72,2.93-2.65,24.74-24.72,49.46-49.47,74.26-74.13,.87-.87,1.4-3.36,3.64-1.78,.23,.14,.49,.23,.67,.42,38.63,38.6,77.24,77.21,115.91,115.77,1.73,1.73,1.3,2.65-.19,4.11-5.89,5.76-11.82,11.49-17.43,17.51-2.41,2.59-3.63,2.48-6.11-.01-30.16-30.35-60.45-60.56-90.7-90.81-.83-.83-1.55-1.77-2.33-2.66-2.06-.46-2.71,1.41-3.74,2.44-29.73,29.65-59.42,59.34-89.1,89.04-1.31,1.31-2.53,2.7-3.79,4.05,.27,2.21,2.06,3.35,3.44,4.73,33.72,33.74,67.46,67.46,101.18,101.21,1.28,1.29,2.98,2.32,3.22,4.4h3.99c.28-.8,.98-.75,1.63-.79,14.06-.94,27.81-3.62,41.23-7.8,53.95-16.82,94.43-50.18,121.58-99.68,5.2-9.48,9.84-19.27,12.66-29.8Z"/><path class="cls-3" d="M198.17,115.45c.77,.89,1.5,1.83,2.33,2.66,30.28,30.29,60.59,60.54,90.8,90.9,2.27,2.28,3.48,2.56,5.83,.1,6.14-6.44,12.61-12.57,18.94-18.82,.7-1.46-.42-2.18-1.24-3-38.6-38.59-77.21-77.17-115.82-115.75-.18-.18-.44-.28-.67-.42-.06,14.78-.11,29.55-.17,44.33Z"/><path class="cls-4" d="M198.17,115.45c.06-14.78,.11-29.55,.17-44.33-2.23-1.55-2.77,.92-3.65,1.79-24.21,24.07-48.34,48.23-72.48,72.37-13.9,13.9-27.78,27.83-41.75,41.66-1.78,1.76-2.01,2.73-.06,4.58,6.17,5.85,12.12,11.93,18.19,17.88,.77,.76,1.35,2.14,2.89,1.44,1.17-1.26,2.31-2.55,3.52-3.77,29.8-29.75,59.59-59.49,89.43-89.19,1.03-1.03,1.68-2.89,3.74-2.44Z"/><path class="cls-4" d="M101.54,289.19c1.26-1.35,2.48-2.74,3.79-4.05,29.69-29.69,59.37-59.39,89.1-89.04,1.03-1.03,1.68-2.89,3.74-2.44,.06-14.77,.12-29.55,.17-44.32-2.24-1.58-2.77,.91-3.64,1.78-24.8,24.66-49.52,49.41-74.26,74.13-.93,.93-1.95,1.77-2.93,2.65-12.22,12.31-24.37,24.68-36.7,36.87-2.22,2.2-2.2,3.34,.03,5.44,5.96,5.65,11.65,11.58,17.49,17.35,.86,.85,1.48,2.39,3.2,1.62Z"/><path class="cls-3" d="M198.35,149.35c-.06,14.77-.12,29.55-.17,44.32,.77,.89,1.5,1.83,2.33,2.66,30.25,30.26,60.54,60.47,90.7,90.81,2.48,2.49,3.7,2.6,6.11,.01,5.61-6.03,11.54-11.76,17.43-17.51,1.49-1.46,1.93-2.38,.19-4.11-38.67-38.55-77.28-77.17-115.91-115.77-.18-.18-.45-.28-.67-.42Z"/></g></g></g></svg>